<?xml version="1.0" encoding="utf-8"?>
<!-- Generator: Adobe Illustrator 17.0.0, SVG Export Plug-In . SVG Version: 6.00 Build 0)  -->
<!DOCTYPE svg PUBLIC "-//W3C//DTD SVG 1.1//EN" "http://www.w3.org/Graphics/SVG/1.1/DTD/svg11.dtd">
<svg version="1.1" id="Layer_1" xmlns="http://www.w3.org/2000/svg" xmlns:xlink="http://www.w3.org/1999/xlink" x="0px" y="0px"
	 width="49.887px" height="10.75px" viewBox="10.113 1.817 49.887 10.75" enable-background="new 10.113 1.817 49.887 10.75"
	 xml:space="preserve">
<g>
	<path fill="#F2F2F2" d="M10.965,12.064l0.418,0.222c0.209,0.111,0.46,0.111,0.669,0l0.83-0.441c0.177-0.094,0.39-0.094,0.567,0
		l0.829,0.441c0.209,0.111,0.46,0.111,0.669,0l0.418-0.222c0.428-0.228,0.695-0.673,0.695-1.157V7.968L10.27,5.116v5.791
		C10.27,11.391,10.537,11.836,10.965,12.064z"/>
	<path fill="#E3E4E5" d="M16.058,7.968v2.938c0,0.485-0.267,0.93-0.695,1.157l-0.418,0.222c-0.209,0.111-0.46,0.111-0.669,0
		l-0.413-0.219c-0.002-0.416-0.003-0.865-0.003-1.254c-0.001-0.553-0.404-1.024-0.951-1.11C10.843,9.372,10.27,8.03,10.27,8.03
		V5.116L16.058,7.968z"/>
	<path fill="#FFFFFF" d="M17.894,1.974c1.281,0,2.319,1.407,2.319,3.142c0,1.735-1.038,3.142-2.319,3.142h-5.306V1.974H17.894z"/>
	<path fill="#F9F9F9" d="M20.145,4.357h-7.556V1.974h5.306C18.982,1.974,19.894,2.988,20.145,4.357z"/>
	<path fill="#F3F3F3" d="M12.589,8.258c-1.281,0-2.319-1.407-2.319-3.142c0-1.735,1.038-3.142,2.319-3.142s2.319,1.407,2.319,3.142
		C14.908,6.851,13.869,8.258,12.589,8.258L12.589,8.258z"/>
	<path d="M18.568,4.033c-0.332,0-0.601-0.268-0.601-0.6c0-0.015,0.001-0.031,0.002-0.046h0.186
		c-0.025,0.228,0.139,0.434,0.367,0.459c0.015,0.002,0.031,0.003,0.046,0.003c0.23,0,0.416-0.186,0.416-0.415
		c0-0.015-0.001-0.031-0.003-0.046h0.186c0.025,0.331-0.222,0.619-0.553,0.644C18.599,4.032,18.583,4.033,18.568,4.033z"/>
	<path d="M15.888,4.033c-0.332,0-0.601-0.268-0.601-0.6c0-0.015,0.001-0.031,0.002-0.046h0.186
		c-0.025,0.228,0.139,0.434,0.367,0.459c0.015,0.002,0.031,0.003,0.046,0.003c0.23,0,0.416-0.186,0.416-0.415
		c0-0.015-0.001-0.031-0.003-0.046h0.186c0.025,0.331-0.222,0.619-0.553,0.644C15.919,4.032,15.904,4.033,15.888,4.033z"/>
	<path fill="#E9E9E9" d="M12.589,5.116c0-1.163-0.466-2.178-1.16-2.721c0.341-0.267,0.737-0.42,1.16-0.42
		c1.281,0,2.319,1.407,2.319,3.142c0,1.735-1.038,3.142-2.319,3.142c-0.422,0-0.818-0.153-1.16-0.421
		C12.122,7.294,12.589,6.279,12.589,5.116L12.589,5.116z"/>
	<path fill="#C0AB91" d="M12.589,6.586c0.305,0,0.651-0.522,0.651-1.471s-0.34-1.471-0.65-1.471c-0.31,0-0.651,0.522-0.651,1.471
		S12.283,6.586,12.589,6.586z"/>
	<path fill="#A78966" d="M12.356,3.742c0.076-0.064,0.155-0.097,0.233-0.097c0.31,0,0.65,0.522,0.65,1.471s-0.345,1.471-0.65,1.471
		c-0.077,0-0.157-0.033-0.233-0.098c0.149-0.415,0.232-0.88,0.232-1.373C12.589,4.623,12.505,4.157,12.356,3.742z"/>
	<path d="M10.823,2.801c0.468-0.635,1.095-0.984,1.766-0.984h5.306c0.67,0,1.297,0.349,1.766,0.984
		c0.458,0.62,0.71,1.442,0.71,2.315s-0.252,1.695-0.71,2.315c-0.468,0.634-1.095,0.984-1.766,0.984h-5.306
		c-0.67,0-1.297-0.349-1.765-0.984c-0.16-0.218-0.293-0.454-0.397-0.704v4.18c-0.001,0.427,0.235,0.819,0.612,1.019l0.418,0.222
		c0.163,0.087,0.359,0.087,0.522,0l0.83-0.441c0.223-0.119,0.49-0.119,0.713,0l0.83,0.441c0.163,0.087,0.359,0.087,0.522,0
		l0.418-0.222c0.377-0.2,0.612-0.592,0.612-1.019V8.939c-0.003-0.087,0.065-0.159,0.152-0.162c0.087-0.003,0.159,0.065,0.162,0.152
		c0,0.003,0,0.007,0,0.01v1.967c0.001,0.543-0.299,1.041-0.778,1.296l-0.418,0.222c-0.255,0.136-0.561,0.136-0.815,0l-0.829-0.441
		c-0.131-0.07-0.289-0.07-0.42,0l-0.83,0.441c-0.255,0.136-0.56,0.136-0.815,0l-0.418-0.222c-0.479-0.254-0.779-0.753-0.778-1.296
		V5.116C10.113,4.243,10.365,3.421,10.823,2.801z M17.894,8.101c1.192,0,2.162-1.339,2.162-2.985c0-1.646-0.97-2.985-2.162-2.985
		h-4.246c0.26,0.164,0.499,0.389,0.707,0.67c0.458,0.62,0.71,1.442,0.71,2.315s-0.252,1.695-0.71,2.315
		c-0.208,0.281-0.446,0.506-0.707,0.67C13.648,8.101,17.894,8.101,17.894,8.101z M12.589,8.101c1.192,0,2.162-1.339,2.162-2.985
		c0-1.646-0.97-2.985-2.162-2.985s-2.162,1.339-2.162,2.985S11.396,8.101,12.589,8.101z"/>
	<path d="M12.589,3.488c0.401,0,0.807,0.559,0.807,1.628c0,1.069-0.406,1.628-0.807,1.628c-0.286,0-0.542-0.274-0.686-0.732
		c-0.026-0.083,0.02-0.17,0.103-0.196c0.083-0.026,0.17,0.02,0.196,0.103c0.11,0.352,0.278,0.512,0.387,0.512
		c0.167,0,0.494-0.397,0.494-1.314c0-0.409-0.068-0.772-0.193-1.021c-0.107-0.216-0.226-0.292-0.301-0.292
		c-0.075,0-0.194,0.077-0.301,0.292c-0.124,0.25-0.193,0.612-0.193,1.021c0,0.056,0.001,0.112,0.004,0.166
		c0.008,0.086-0.056,0.162-0.142,0.17c-0.086,0.008-0.162-0.056-0.17-0.142c0-0.005-0.001-0.009-0.001-0.014
		c-0.003-0.06-0.004-0.12-0.004-0.18C11.782,4.047,12.188,3.488,12.589,3.488z"/>
	<path d="M17.317,5.892h-0.18c-0.064,0.001-0.116-0.05-0.117-0.113c0-0.063,0.053-0.114,0.117-0.114h0.319
		c0.044,0.001,0.08-0.034,0.081-0.078c-0.001-0.044-0.037-0.079-0.081-0.078h-0.148V5.404c-0.001-0.044-0.037-0.079-0.081-0.078
		c-0.044-0.001-0.08,0.034-0.081,0.078v0.105h-0.009c-0.154,0-0.279,0.121-0.279,0.27s0.125,0.27,0.279,0.27h0.181
		c0.065,0,0.117,0.051,0.117,0.114c-0.001,0.064-0.053,0.115-0.117,0.114h-0.325c-0.044-0.001-0.08,0.034-0.081,0.078
		c0,0.043,0.036,0.078,0.081,0.078h0.154V6.54c0,0.043,0.036,0.078,0.081,0.078c0.044,0.001,0.08-0.034,0.081-0.078V6.433h0.013
		c0.152-0.002,0.276-0.123,0.276-0.27C17.596,6.014,17.471,5.892,17.317,5.892z"/>
</g>
<path d="M23.177,7.417c0.002,0.107-0.04,0.21-0.116,0.284c-0.072,0.077-0.168,0.115-0.287,0.115c-0.114,0-0.21-0.038-0.287-0.115
	c-0.077-0.074-0.119-0.177-0.116-0.284v-5.2c0-0.118,0.039-0.213,0.116-0.284c0.077-0.077,0.173-0.115,0.287-0.115h1.551
	c0.383,0,0.724,0.085,1.024,0.254c0.299,0.162,0.544,0.408,0.706,0.706c0.171,0.302,0.256,0.646,0.256,1.029
	c0,0.374-0.086,0.707-0.256,0.999c-0.165,0.291-0.41,0.528-0.706,0.684c-0.3,0.164-0.641,0.246-1.024,0.246h-1.148V7.417z
	 M24.324,4.997c0.352,0,0.641-0.11,0.869-0.33c0.228-0.225,0.341-0.512,0.341-0.86c0-0.364-0.114-0.663-0.341-0.899
	c-0.228-0.236-0.517-0.353-0.869-0.353h-1.148v2.443C23.177,4.997,24.324,4.997,24.324,4.997z"/>
<path d="M28.896,3.584c0.408,0,0.773,0.092,1.094,0.276c0.32,0.173,0.583,0.435,0.76,0.753c0.186,0.323,0.279,0.692,0.279,1.106
	c0,0.41-0.09,0.776-0.271,1.098c-0.178,0.319-0.441,0.583-0.76,0.76c-0.321,0.179-0.688,0.269-1.101,0.269
	c-0.414,0-0.783-0.09-1.109-0.269c-0.319-0.178-0.582-0.441-0.76-0.76c-0.181-0.322-0.271-0.689-0.271-1.098
	c0-0.415,0.09-0.784,0.271-1.106c0.176-0.318,0.44-0.579,0.76-0.753C28.113,3.676,28.483,3.584,28.896,3.584z M28.896,4.275
	c-0.264,0-0.502,0.061-0.713,0.184c-0.207,0.123-0.37,0.295-0.489,0.515c-0.119,0.22-0.179,0.468-0.179,0.745
	c0,0.277,0.059,0.525,0.179,0.745c0.119,0.215,0.282,0.384,0.489,0.507c0.212,0.123,0.45,0.184,0.713,0.184
	c0.264,0,0.499-0.061,0.706-0.184c0.208-0.119,0.378-0.295,0.489-0.507c0.119-0.22,0.179-0.469,0.179-0.745
	c0-0.277-0.059-0.525-0.179-0.745c-0.109-0.216-0.279-0.395-0.489-0.515C29.395,4.337,29.16,4.275,28.896,4.275z"/>
<path d="M35.704,3.607c0.119,0,0.215,0.035,0.287,0.107C36.063,3.786,36.1,3.881,36.1,3.999v3.426c0,0.113-0.036,0.207-0.109,0.284
	c-0.072,0.072-0.168,0.108-0.287,0.108c-0.114,0-0.21-0.036-0.287-0.108c-0.072-0.077-0.112-0.179-0.109-0.284V7.34
	c-0.169,0.166-0.369,0.297-0.589,0.384c-0.233,0.088-0.48,0.132-0.729,0.131c-0.357,0-0.677-0.077-0.962-0.231
	c-0.283-0.152-0.515-0.385-0.667-0.668c-0.16-0.297-0.24-0.653-0.24-1.068v-1.89c0-0.113,0.036-0.205,0.108-0.277
	c0.078-0.077,0.173-0.115,0.287-0.115c0.114,0,0.207,0.038,0.279,0.115c0.077,0.072,0.116,0.164,0.116,0.277v1.89
	c0,0.415,0.111,0.73,0.334,0.945c0.228,0.21,0.527,0.315,0.899,0.315c0.217,0,0.414-0.044,0.59-0.131
	c0.181-0.087,0.32-0.205,0.419-0.353c0.103-0.148,0.155-0.315,0.155-0.499V3.999c0-0.118,0.036-0.213,0.109-0.284
	C35.495,3.643,35.59,3.607,35.704,3.607z"/>
<path d="M39.625,3.584c0.398,0,0.76,0.095,1.086,0.284c0.325,0.179,0.594,0.445,0.776,0.768c0.186,0.322,0.279,0.683,0.279,1.083
	c0,0.399-0.088,0.763-0.264,1.091c-0.163,0.315-0.41,0.578-0.713,0.76c-0.3,0.184-0.636,0.277-1.008,0.277
	c-0.29,0.002-0.576-0.061-0.838-0.184c-0.255-0.12-0.48-0.296-0.659-0.515v2.074c0,0.118-0.036,0.213-0.109,0.284
	c-0.072,0.072-0.168,0.107-0.287,0.107c-0.114,0-0.21-0.036-0.287-0.107c-0.072-0.072-0.109-0.167-0.109-0.284V5.719
	c0-0.4,0.093-0.76,0.279-1.083c0.183-0.32,0.448-0.585,0.768-0.768C38.866,3.679,39.227,3.584,39.625,3.584z M39.625,7.156
	c0.259,0,0.491-0.061,0.698-0.184c0.208-0.124,0.38-0.302,0.497-0.515c0.124-0.22,0.186-0.466,0.186-0.737
	c0-0.272-0.062-0.517-0.186-0.737c-0.114-0.215-0.286-0.393-0.497-0.515c-0.207-0.128-0.439-0.192-0.698-0.192
	c-0.249-0.003-0.493,0.064-0.706,0.192c-0.207,0.123-0.369,0.295-0.489,0.515c-0.119,0.22-0.178,0.466-0.178,0.737
	c0,0.271,0.059,0.517,0.178,0.737c0.115,0.211,0.284,0.388,0.489,0.514C39.134,7.095,39.378,7.159,39.625,7.156z"/>
<path d="M44.869,3.584c0.398,0,0.758,0.095,1.078,0.284c0.322,0.181,0.588,0.446,0.768,0.768c0.191,0.322,0.287,0.683,0.287,1.083
	v1.713c0.002,0.107-0.04,0.21-0.116,0.284c-0.072,0.072-0.166,0.108-0.279,0.108c-0.113,0-0.209-0.036-0.287-0.108
	c-0.072-0.077-0.112-0.179-0.109-0.284V7.148c-0.179,0.218-0.404,0.394-0.659,0.515c-0.262,0.124-0.548,0.187-0.838,0.184
	c-0.372,0-0.711-0.092-1.016-0.277c-0.3-0.184-0.538-0.438-0.713-0.76c-0.171-0.328-0.256-0.691-0.256-1.091
	c0-0.4,0.093-0.76,0.279-1.083c0.18-0.322,0.446-0.588,0.768-0.768C44.107,3.679,44.471,3.584,44.869,3.584z M44.869,7.156
	c0.258,0,0.491-0.061,0.698-0.184c0.208-0.124,0.38-0.302,0.497-0.515c0.119-0.22,0.178-0.466,0.178-0.737
	c0-0.272-0.059-0.517-0.178-0.737c-0.114-0.215-0.286-0.393-0.497-0.515c-0.207-0.128-0.44-0.192-0.698-0.192
	c-0.249-0.003-0.493,0.064-0.706,0.192c-0.208,0.124-0.38,0.302-0.497,0.515c-0.119,0.22-0.178,0.466-0.178,0.737
	c0,0.271,0.059,0.517,0.179,0.737c0.124,0.215,0.29,0.387,0.497,0.514C44.378,7.095,44.622,7.159,44.869,7.156z"/>
<path d="M50.312,3.584c0.398,0,0.76,0.095,1.086,0.284c0.325,0.179,0.594,0.445,0.776,0.768c0.186,0.322,0.279,0.683,0.279,1.083
	c0,0.399-0.088,0.763-0.264,1.091c-0.163,0.315-0.41,0.578-0.714,0.76c-0.3,0.184-0.636,0.277-1.008,0.277
	c-0.29,0.002-0.576-0.061-0.838-0.184c-0.255-0.12-0.48-0.296-0.659-0.515v2.074c0,0.118-0.036,0.213-0.109,0.284
	c-0.072,0.072-0.168,0.107-0.287,0.107c-0.114,0-0.21-0.036-0.287-0.107c-0.072-0.072-0.108-0.167-0.108-0.284V5.719
	c0-0.4,0.093-0.76,0.279-1.083c0.183-0.32,0.448-0.585,0.768-0.768C49.552,3.679,49.914,3.584,50.312,3.584z M50.312,7.156
	c0.258,0,0.491-0.061,0.698-0.184c0.208-0.124,0.38-0.302,0.497-0.515c0.124-0.22,0.186-0.466,0.186-0.737
	c0-0.272-0.062-0.517-0.186-0.737c-0.114-0.215-0.286-0.393-0.497-0.515c-0.207-0.128-0.44-0.192-0.698-0.192
	c-0.249-0.003-0.493,0.064-0.706,0.192c-0.207,0.123-0.369,0.295-0.489,0.515c-0.119,0.22-0.179,0.466-0.179,0.737
	c0,0.271,0.06,0.517,0.179,0.737c0.115,0.211,0.284,0.388,0.489,0.514C49.821,7.095,50.064,7.159,50.312,7.156z"/>
<path d="M57.44,5.65c0,0.097-0.034,0.179-0.101,0.246c-0.067,0.061-0.153,0.092-0.256,0.092h-2.947
	c0.057,0.359,0.22,0.648,0.489,0.868c0.274,0.22,0.607,0.33,1,0.33c0.155,0,0.315-0.028,0.481-0.085
	c0.171-0.056,0.31-0.126,0.419-0.207c0.073-0.057,0.163-0.086,0.256-0.085c0.098,0,0.176,0.026,0.233,0.077
	c0.093,0.077,0.14,0.164,0.14,0.261c0,0.092-0.041,0.169-0.124,0.231c-0.176,0.138-0.395,0.251-0.659,0.338
	c-0.259,0.087-0.507,0.131-0.745,0.131c-0.424,0-0.804-0.09-1.14-0.269c-0.328-0.177-0.602-0.44-0.791-0.76
	c-0.186-0.322-0.279-0.689-0.279-1.098s0.088-0.776,0.264-1.099c0.172-0.318,0.43-0.582,0.745-0.76
	c0.32-0.184,0.682-0.276,1.086-0.276c0.398,0,0.742,0.087,1.032,0.261c0.289,0.173,0.52,0.427,0.667,0.73
	C57.362,4.887,57.44,5.246,57.44,5.65z M55.509,4.245c-0.377,0-0.685,0.102-0.923,0.307c-0.233,0.205-0.38,0.479-0.442,0.822h2.583
	c-0.047-0.343-0.176-0.617-0.388-0.822C56.127,4.347,55.85,4.245,55.509,4.245z"/>
<path d="M58.294,2.201c0-0.112,0.036-0.205,0.109-0.276c0.072-0.072,0.166-0.108,0.279-0.108c0.114,0,0.207,0.036,0.279,0.108
	c0.072,0.072,0.108,0.164,0.108,0.276v4.194c0,0.19,0.036,0.346,0.109,0.469c0.072,0.123,0.165,0.184,0.279,0.184h0.194
	c0.103,0,0.186,0.036,0.248,0.108C59.966,7.227,60,7.32,60,7.432c0,0.113-0.049,0.205-0.147,0.277
	c-0.098,0.072-0.225,0.108-0.38,0.108h-0.016c-0.215,0.002-0.425-0.059-0.605-0.177c-0.176-0.123-0.313-0.292-0.411-0.507
	c-0.098-0.22-0.147-0.466-0.147-0.737C58.294,6.395,58.294,2.201,58.294,2.201z"/>
<path d="M23.24,10.258c0.114,0,0.213,0.015,0.295,0.045c0.084,0.03,0.169,0.08,0.255,0.149c0.016,0.011,0.028,0.025,0.036,0.043
	c0.006,0.016,0.009,0.033,0.009,0.05c0.001,0.029-0.012,0.056-0.034,0.074c-0.02,0.019-0.047,0.03-0.074,0.029
	c-0.029,0-0.057-0.011-0.079-0.03c-0.053-0.047-0.114-0.085-0.18-0.112c-0.059-0.024-0.135-0.036-0.228-0.036
	c-0.118,0-0.226,0.031-0.325,0.092c-0.098,0.061-0.176,0.146-0.234,0.252c-0.057,0.105-0.086,0.22-0.086,0.345
	c0,0.126,0.028,0.242,0.086,0.347c0.059,0.105,0.137,0.189,0.234,0.25c0.099,0.061,0.207,0.093,0.325,0.093
	c0.144,0,0.283-0.05,0.415-0.149c0.021-0.017,0.047-0.026,0.074-0.027c0.029,0,0.052,0.011,0.07,0.032
	c0.02,0.021,0.031,0.05,0.029,0.079c0,0.031-0.012,0.059-0.036,0.083c-0.155,0.128-0.351,0.198-0.552,0.196
	c-0.315,0.003-0.606-0.168-0.755-0.446c-0.077-0.14-0.117-0.297-0.115-0.457c0-0.166,0.038-0.316,0.115-0.453
	c0.077-0.138,0.181-0.247,0.313-0.327C22.931,10.299,23.084,10.256,23.24,10.258L23.24,10.258z"/>
<path d="M24.672,10.798c0.116,0,0.22,0.028,0.313,0.083c0.095,0.054,0.169,0.129,0.223,0.225c0.056,0.095,0.083,0.201,0.083,0.318
	v0.502c0.001,0.031-0.012,0.061-0.034,0.083c-0.022,0.021-0.051,0.033-0.081,0.032c-0.031,0.001-0.061-0.011-0.083-0.032
	c-0.021-0.023-0.032-0.052-0.032-0.083v-0.083c-0.106,0.131-0.266,0.207-0.435,0.205c-0.108,0-0.207-0.027-0.295-0.081
	c-0.088-0.055-0.159-0.131-0.207-0.223c-0.05-0.099-0.076-0.209-0.074-0.32c0-0.117,0.027-0.223,0.081-0.318
	c0.054-0.096,0.129-0.171,0.223-0.225C24.451,10.826,24.561,10.797,24.672,10.798z M24.672,11.846
	c0.145,0.002,0.279-0.077,0.347-0.205c0.035-0.064,0.052-0.137,0.052-0.216c0-0.08-0.017-0.152-0.052-0.216
	c-0.033-0.063-0.083-0.115-0.144-0.151c-0.061-0.038-0.131-0.057-0.203-0.056c-0.075,0-0.144,0.019-0.205,0.056
	c-0.061,0.037-0.111,0.089-0.145,0.151c-0.035,0.067-0.053,0.141-0.052,0.216c0,0.08,0.017,0.152,0.052,0.216
	c0.036,0.063,0.084,0.113,0.145,0.151C24.529,11.828,24.597,11.846,24.672,11.846z"/>
<path d="M25.612,10.393c-0.001-0.03,0.01-0.06,0.032-0.081c0.022-0.021,0.051-0.032,0.081-0.031c0.033,0,0.06,0.01,0.081,0.031
	c0.021,0.022,0.033,0.051,0.031,0.081v1.23c0,0.056,0.011,0.101,0.032,0.137s0.048,0.054,0.081,0.054h0.056
	c0.03,0,0.054,0.011,0.072,0.032c0.02,0.021,0.03,0.048,0.03,0.081c0,0.033-0.016,0.063-0.043,0.081
	c-0.032,0.022-0.071,0.033-0.111,0.031H25.95c-0.062,0.001-0.124-0.017-0.176-0.052c-0.053-0.038-0.094-0.089-0.119-0.149
	c-0.029-0.068-0.044-0.142-0.043-0.216C25.612,11.623,25.612,10.393,25.612,10.393z"/>
<path d="M26.835,10.798c0.177,0,0.325,0.068,0.442,0.203c0.015,0.017,0.022,0.036,0.022,0.059c0,0.033-0.017,0.061-0.05,0.083
	c-0.015,0.011-0.033,0.016-0.052,0.016c-0.034,0-0.066-0.015-0.088-0.041c-0.071-0.076-0.171-0.119-0.275-0.117
	c-0.116,0-0.21,0.039-0.282,0.117c-0.072,0.077-0.108,0.179-0.108,0.307c0,0.081,0.017,0.154,0.05,0.218
	c0.035,0.063,0.082,0.113,0.142,0.149c0.062,0.036,0.132,0.054,0.21,0.054c0.102,0,0.185-0.026,0.248-0.079
	c0.024-0.019,0.053-0.03,0.083-0.032c0.021,0,0.04,0.007,0.059,0.021c0.029,0.024,0.043,0.051,0.043,0.081
	c0,0.023-0.009,0.043-0.027,0.061c-0.108,0.1-0.244,0.151-0.406,0.151c-0.119,0-0.226-0.027-0.32-0.081
	c-0.093-0.053-0.17-0.13-0.223-0.223c-0.053-0.098-0.08-0.208-0.079-0.32c0-0.12,0.025-0.228,0.077-0.322
	c0.053-0.096,0.126-0.171,0.219-0.223C26.615,10.825,26.724,10.797,26.835,10.798z"/>
<path d="M28.68,10.805c0.035,0,0.062,0.011,0.083,0.032c0.022,0.022,0.033,0.052,0.032,0.083v1.005
	c0.001,0.031-0.011,0.061-0.032,0.083c-0.022,0.021-0.052,0.033-0.083,0.031c-0.031,0.001-0.061-0.01-0.083-0.031
	c-0.021-0.023-0.032-0.052-0.032-0.083V11.9c-0.048,0.048-0.105,0.086-0.171,0.112c-0.066,0.026-0.137,0.038-0.212,0.038
	c-0.097,0.002-0.194-0.022-0.28-0.067c-0.082-0.045-0.15-0.113-0.194-0.196c-0.047-0.087-0.07-0.192-0.07-0.313V10.92
	c0-0.033,0.011-0.06,0.032-0.081c0.022-0.022,0.052-0.034,0.083-0.034c0.031-0.001,0.06,0.011,0.081,0.034
	c0.022,0.021,0.035,0.051,0.034,0.081v0.554c0,0.122,0.033,0.214,0.097,0.277c0.066,0.061,0.153,0.092,0.262,0.092
	c0.063,0,0.12-0.013,0.171-0.038c0.049-0.023,0.092-0.058,0.122-0.103c0.03-0.043,0.045-0.094,0.045-0.146V10.92
	c-0.001-0.031,0.01-0.061,0.032-0.083C28.62,10.816,28.649,10.804,28.68,10.805z"/>
<path d="M29.178,10.393c0-0.033,0.011-0.06,0.032-0.081c0.022-0.021,0.051-0.032,0.081-0.031c0.033,0,0.06,0.01,0.081,0.031
	c0.021,0.022,0.033,0.051,0.032,0.081v1.23c0,0.056,0.01,0.101,0.031,0.137c0.021,0.036,0.048,0.054,0.081,0.054h0.056
	c0.03,0,0.054,0.011,0.072,0.032c0.02,0.022,0.03,0.051,0.029,0.081c0,0.033-0.016,0.063-0.043,0.081
	c-0.032,0.022-0.071,0.033-0.111,0.031h-0.004c-0.062,0.001-0.124-0.017-0.176-0.052c-0.053-0.038-0.094-0.089-0.119-0.149
	c-0.029-0.068-0.044-0.142-0.043-0.216C29.178,11.623,29.178,10.393,29.178,10.393z"/>
<path d="M30.412,10.798c0.116,0,0.22,0.028,0.313,0.083c0.095,0.054,0.169,0.129,0.223,0.225c0.056,0.095,0.084,0.201,0.084,0.318
	v0.502c0.001,0.031-0.012,0.061-0.034,0.083c-0.022,0.021-0.051,0.033-0.081,0.032c-0.031,0.001-0.061-0.01-0.084-0.032
	c-0.021-0.023-0.032-0.053-0.031-0.083v-0.083c-0.106,0.131-0.266,0.207-0.435,0.205c-0.212,0.003-0.407-0.115-0.503-0.304
	c-0.05-0.099-0.076-0.209-0.074-0.32c0-0.117,0.027-0.223,0.081-0.318c0.054-0.096,0.128-0.171,0.223-0.225
	C30.191,10.826,30.301,10.797,30.412,10.798z M30.412,11.846c0.145,0.002,0.279-0.077,0.347-0.205
	c0.035-0.064,0.052-0.137,0.052-0.216c0-0.08-0.017-0.152-0.052-0.216c-0.033-0.063-0.083-0.115-0.144-0.151
	c-0.061-0.038-0.131-0.057-0.203-0.056c-0.072-0.001-0.143,0.019-0.205,0.056c-0.061,0.037-0.11,0.089-0.144,0.151
	c-0.035,0.067-0.053,0.141-0.052,0.216c0,0.08,0.017,0.152,0.052,0.216c0.036,0.063,0.084,0.113,0.144,0.151
	C30.269,11.828,30.337,11.846,30.412,11.846z"/>
<path d="M32.461,10.281c0.035,0,0.062,0.01,0.083,0.031c0.022,0.022,0.033,0.052,0.032,0.083v1.027
	c0.003,0.223-0.114,0.431-0.307,0.545c-0.095,0.055-0.203,0.083-0.313,0.081c-0.116,0-0.222-0.027-0.318-0.081
	c-0.093-0.054-0.17-0.132-0.223-0.225c-0.055-0.098-0.083-0.208-0.081-0.32c0-0.117,0.025-0.223,0.074-0.317
	c0.051-0.096,0.12-0.171,0.207-0.225c0.089-0.054,0.187-0.081,0.295-0.081c0.169-0.001,0.329,0.074,0.435,0.205v-0.608
	c-0.001-0.031,0.01-0.061,0.032-0.083C32.4,10.291,32.43,10.28,32.461,10.281z M31.956,11.846c0.075,0,0.143-0.018,0.203-0.054
	c0.061-0.038,0.109-0.089,0.144-0.153c0.035-0.065,0.052-0.137,0.052-0.216c0-0.08-0.017-0.151-0.052-0.214
	c-0.033-0.063-0.083-0.115-0.144-0.151c-0.061-0.038-0.131-0.057-0.203-0.056c-0.072-0.001-0.143,0.019-0.205,0.056
	c-0.061,0.037-0.11,0.089-0.144,0.151c-0.035,0.066-0.053,0.139-0.052,0.214c0,0.08,0.017,0.152,0.052,0.216
	c0.036,0.064,0.084,0.116,0.144,0.153C31.812,11.828,31.881,11.846,31.956,11.846z"/>
<path d="M33.563,10.798c0.119,0,0.225,0.027,0.318,0.081c0.095,0.052,0.168,0.126,0.221,0.22c0.054,0.095,0.081,0.203,0.081,0.325
	c0,0.12-0.027,0.228-0.079,0.322c-0.053,0.095-0.126,0.169-0.221,0.223c-0.098,0.054-0.208,0.081-0.32,0.079
	c-0.12,0-0.228-0.027-0.322-0.079c-0.093-0.052-0.17-0.129-0.221-0.223c-0.054-0.099-0.081-0.21-0.079-0.322
	c0-0.122,0.027-0.23,0.079-0.325c0.053-0.095,0.126-0.168,0.221-0.22C33.34,10.825,33.451,10.797,33.563,10.798z M33.563,11.001
	c-0.073-0.001-0.144,0.018-0.207,0.054c-0.06,0.036-0.109,0.088-0.142,0.151c-0.035,0.067-0.053,0.143-0.052,0.219
	c0,0.081,0.017,0.154,0.052,0.218c0.035,0.063,0.082,0.113,0.142,0.149c0.062,0.036,0.131,0.054,0.207,0.054
	c0.077,0,0.145-0.018,0.205-0.054c0.061-0.036,0.109-0.086,0.142-0.149c0.035-0.067,0.053-0.143,0.052-0.219
	c0-0.081-0.017-0.154-0.052-0.218c-0.032-0.063-0.081-0.116-0.142-0.151C33.707,11.019,33.636,11,33.563,11.001z"/>
<path d="M35.152,10.794c0.08,0,0.142,0.012,0.187,0.036c0.045,0.024,0.068,0.054,0.068,0.09c0,0.008-0.001,0.015-0.002,0.022
	c-0.013,0.048-0.043,0.072-0.09,0.072c-0.011,0-0.023-0.002-0.034-0.004c-0.048-0.009-0.097-0.015-0.147-0.016
	c-0.108,0-0.195,0.025-0.262,0.074c-0.064,0.046-0.101,0.121-0.099,0.2v0.658c0,0.036-0.01,0.064-0.03,0.083
	c-0.018,0.02-0.046,0.03-0.083,0.03c-0.03,0.002-0.06-0.008-0.083-0.027c-0.02-0.02-0.029-0.048-0.029-0.086V10.92
	c0-0.036,0.01-0.064,0.03-0.083c0.023-0.021,0.053-0.031,0.083-0.03c0.075,0,0.113,0.038,0.113,0.113v0.043
	c0.045-0.053,0.1-0.094,0.167-0.124C35.007,10.809,35.077,10.794,35.152,10.794z"/>
<path d="M36.136,10.798c0.116,0,0.22,0.028,0.313,0.083c0.095,0.054,0.169,0.129,0.223,0.225c0.056,0.095,0.083,0.201,0.083,0.318
	v0.502c0.001,0.031-0.012,0.061-0.034,0.083c-0.022,0.021-0.051,0.033-0.081,0.032c-0.031,0.001-0.061-0.011-0.083-0.032
	c-0.021-0.023-0.032-0.052-0.032-0.083v-0.083c-0.106,0.131-0.266,0.207-0.435,0.205c-0.212,0.003-0.407-0.115-0.502-0.304
	c-0.05-0.099-0.076-0.209-0.074-0.32c0-0.117,0.027-0.223,0.081-0.318c0.054-0.096,0.129-0.171,0.223-0.225
	C35.915,10.826,36.024,10.797,36.136,10.798z M36.136,11.846c0.145,0.002,0.279-0.077,0.347-0.205
	c0.035-0.064,0.052-0.137,0.052-0.216c0-0.08-0.017-0.152-0.052-0.216c-0.033-0.063-0.083-0.115-0.144-0.151
	c-0.061-0.038-0.131-0.057-0.203-0.056c-0.075,0-0.144,0.019-0.205,0.056c-0.061,0.037-0.11,0.089-0.144,0.151
	c-0.035,0.067-0.053,0.141-0.052,0.216c0,0.08,0.017,0.152,0.052,0.216c0.036,0.063,0.084,0.113,0.144,0.151
	C35.992,11.828,36.061,11.846,36.136,11.846z"/>
<path d="M38.868,10.281c0.031-0.001,0.061,0.01,0.083,0.031c0.022,0.022,0.033,0.052,0.032,0.083v1.027
	c0,0.117-0.028,0.224-0.083,0.32c-0.053,0.094-0.13,0.171-0.223,0.225c-0.095,0.055-0.203,0.083-0.313,0.081
	c-0.111,0.001-0.221-0.027-0.318-0.081c-0.093-0.054-0.17-0.132-0.223-0.225c-0.054-0.098-0.082-0.208-0.081-0.32
	c0-0.117,0.025-0.223,0.074-0.317c0.051-0.096,0.12-0.171,0.207-0.225c0.089-0.054,0.187-0.081,0.296-0.081
	c0.169-0.001,0.328,0.074,0.435,0.205v-0.608c0-0.035,0.011-0.062,0.032-0.083C38.807,10.291,38.837,10.28,38.868,10.281z
	 M38.363,11.846c0.075,0,0.143-0.018,0.203-0.054c0.062-0.038,0.11-0.089,0.144-0.153c0.035-0.065,0.052-0.137,0.052-0.216
	c0-0.08-0.017-0.151-0.052-0.214c-0.033-0.063-0.083-0.115-0.144-0.151c-0.061-0.038-0.131-0.057-0.203-0.056
	c-0.075,0-0.144,0.019-0.205,0.056c-0.061,0.037-0.111,0.089-0.145,0.151c-0.035,0.066-0.053,0.139-0.052,0.214
	c0,0.08,0.017,0.152,0.052,0.216c0.036,0.064,0.084,0.116,0.145,0.153C38.219,11.828,38.288,11.846,38.363,11.846z"/>
<path d="M40.518,11.404c0.001,0.027-0.01,0.053-0.029,0.072c-0.02,0.018-0.047,0.028-0.074,0.027h-0.857
	c0.017,0.105,0.064,0.19,0.142,0.254c0.08,0.065,0.177,0.097,0.291,0.097c0.045,0,0.092-0.008,0.14-0.025
	c0.05-0.017,0.09-0.037,0.122-0.061c0.021-0.017,0.048-0.025,0.074-0.025c0.028,0,0.051,0.007,0.068,0.022
	c0.027,0.022,0.04,0.048,0.04,0.077c0,0.027-0.012,0.049-0.036,0.067c-0.058,0.044-0.122,0.077-0.192,0.099
	c-0.18,0.063-0.379,0.048-0.548-0.04c-0.096-0.052-0.175-0.129-0.23-0.223c-0.055-0.098-0.083-0.21-0.081-0.322
	c0-0.12,0.025-0.228,0.077-0.322c0.053-0.096,0.125-0.171,0.216-0.223c0.096-0.055,0.205-0.083,0.316-0.081
	c0.116,0,0.216,0.026,0.3,0.077c0.084,0.051,0.149,0.122,0.194,0.214C40.496,11.181,40.518,11.286,40.518,11.404L40.518,11.404z
	 M39.957,10.992c-0.11,0-0.199,0.03-0.268,0.09c-0.069,0.063-0.115,0.148-0.128,0.241h0.751c-0.014-0.1-0.051-0.181-0.113-0.241
	C40.136,11.022,40.056,10.992,39.957,10.992z"/>
<path d="M42.137,10.798c0.116,0,0.221,0.028,0.316,0.083c0.096,0.054,0.171,0.129,0.225,0.225c0.054,0.095,0.081,0.201,0.081,0.318
	s-0.025,0.224-0.077,0.32c-0.096,0.187-0.289,0.305-0.5,0.304c-0.169,0.001-0.329-0.074-0.435-0.205v0.608
	c0,0.035-0.01,0.062-0.031,0.083c-0.022,0.022-0.053,0.033-0.084,0.032c-0.031,0.001-0.061-0.011-0.083-0.032
	c-0.021-0.022-0.033-0.052-0.031-0.083v-1.027c0-0.117,0.027-0.223,0.081-0.318C41.708,10.914,41.915,10.796,42.137,10.798z
	 M42.137,11.846c0.145,0.002,0.279-0.077,0.347-0.205c0.036-0.064,0.054-0.137,0.054-0.216c0-0.08-0.018-0.152-0.054-0.216
	c-0.033-0.063-0.083-0.115-0.145-0.151c-0.061-0.038-0.131-0.057-0.203-0.056c-0.145-0.002-0.28,0.078-0.347,0.207
	c-0.035,0.067-0.053,0.141-0.052,0.216c0,0.08,0.017,0.152,0.052,0.216c0.035,0.063,0.082,0.113,0.142,0.151
	C41.993,11.828,42.061,11.846,42.137,11.846z"/>
<path d="M43.684,10.798c0.116,0,0.22,0.028,0.313,0.083c0.095,0.054,0.169,0.129,0.223,0.225c0.056,0.095,0.084,0.201,0.084,0.318
	v0.502c0.001,0.031-0.012,0.061-0.034,0.083c-0.022,0.021-0.051,0.033-0.081,0.032c-0.031,0.001-0.061-0.01-0.084-0.032
	c-0.021-0.023-0.032-0.053-0.031-0.083v-0.083c-0.106,0.131-0.266,0.207-0.435,0.205c-0.212,0.003-0.407-0.115-0.503-0.304
	c-0.05-0.099-0.076-0.209-0.074-0.32c0-0.117,0.027-0.223,0.081-0.318c0.054-0.096,0.128-0.171,0.223-0.225
	C43.462,10.826,43.572,10.797,43.684,10.798z M43.684,11.846c0.145,0.002,0.279-0.077,0.347-0.205
	c0.035-0.064,0.052-0.137,0.052-0.216c0-0.08-0.017-0.152-0.052-0.216c-0.033-0.063-0.083-0.115-0.144-0.151
	c-0.061-0.038-0.131-0.057-0.203-0.056c-0.075,0-0.144,0.019-0.205,0.056c-0.061,0.037-0.11,0.089-0.144,0.151
	c-0.035,0.067-0.053,0.141-0.052,0.216c0,0.08,0.017,0.152,0.052,0.216c0.036,0.063,0.084,0.113,0.144,0.151
	C43.54,11.828,43.608,11.846,43.684,11.846z"/>
<path d="M45.288,10.798c0.116,0,0.221,0.028,0.316,0.083c0.096,0.054,0.171,0.129,0.226,0.225c0.054,0.095,0.081,0.201,0.081,0.318
	s-0.025,0.224-0.077,0.32c-0.096,0.187-0.29,0.305-0.5,0.304c-0.169,0.001-0.329-0.074-0.435-0.205v0.608
	c0,0.035-0.011,0.062-0.032,0.083c-0.022,0.022-0.052,0.033-0.083,0.032c-0.031,0.001-0.061-0.011-0.083-0.032
	c-0.022-0.022-0.033-0.052-0.032-0.083v-1.027c0-0.117,0.027-0.223,0.081-0.318C44.86,10.914,45.066,10.796,45.288,10.798z
	 M45.288,11.846c0.145,0.002,0.279-0.077,0.347-0.205c0.036-0.064,0.054-0.137,0.054-0.216c0-0.08-0.018-0.152-0.054-0.216
	c-0.033-0.063-0.083-0.115-0.144-0.151C45.43,11.02,45.36,11,45.288,11.001c-0.145-0.002-0.279,0.078-0.347,0.207
	c-0.035,0.067-0.053,0.141-0.052,0.216c0,0.08,0.017,0.152,0.052,0.216c0.035,0.063,0.082,0.113,0.142,0.151
	C45.145,11.828,45.213,11.846,45.288,11.846z"/>
<path d="M47.383,11.404c0.001,0.027-0.01,0.053-0.03,0.072c-0.02,0.018-0.047,0.028-0.074,0.027h-0.857
	c0.016,0.105,0.064,0.19,0.142,0.254c0.08,0.065,0.177,0.097,0.291,0.097c0.045,0,0.092-0.008,0.14-0.025
	c0.05-0.017,0.09-0.037,0.122-0.061c0.021-0.017,0.047-0.025,0.074-0.025c0.025-0.001,0.049,0.007,0.068,0.022
	c0.027,0.022,0.04,0.048,0.04,0.077c0,0.027-0.012,0.049-0.036,0.067c-0.058,0.044-0.122,0.077-0.192,0.099
	c-0.18,0.063-0.379,0.048-0.548-0.04c-0.096-0.052-0.175-0.129-0.23-0.223c-0.055-0.098-0.083-0.209-0.081-0.322
	c0-0.12,0.026-0.228,0.077-0.322c0.053-0.096,0.125-0.171,0.216-0.223c0.096-0.055,0.205-0.083,0.316-0.081
	c0.116,0,0.216,0.026,0.3,0.077c0.084,0.051,0.149,0.122,0.194,0.214C47.36,11.181,47.383,11.286,47.383,11.404z M46.821,10.992
	c-0.109,0-0.199,0.03-0.268,0.09c-0.069,0.063-0.115,0.148-0.129,0.241h0.751c-0.014-0.1-0.051-0.181-0.113-0.241
	C47.001,11.022,46.921,10.992,46.821,10.992L46.821,10.992z"/>
<path d="M47.654,10.393c0-0.033,0.01-0.06,0.031-0.081c0.022-0.021,0.051-0.033,0.081-0.031c0.033,0,0.06,0.01,0.081,0.031
	c0.021,0.022,0.033,0.051,0.031,0.081v1.23c0,0.056,0.011,0.101,0.032,0.137s0.048,0.054,0.081,0.054h0.056
	c0.03,0,0.054,0.011,0.072,0.032c0.02,0.022,0.03,0.051,0.029,0.081c0,0.033-0.016,0.063-0.043,0.081
	c-0.032,0.022-0.071,0.033-0.111,0.031h-0.004c-0.062,0.001-0.124-0.017-0.176-0.052c-0.053-0.038-0.094-0.089-0.119-0.149
	c-0.029-0.068-0.044-0.142-0.043-0.216C47.654,11.623,47.654,10.393,47.654,10.393z"/>
<path d="M49.693,10.796c0.103,0,0.197,0.023,0.279,0.068c0.083,0.045,0.147,0.111,0.194,0.198c0.047,0.086,0.07,0.189,0.07,0.311
	v0.554c0.001,0.031-0.012,0.061-0.034,0.083c-0.022,0.021-0.051,0.033-0.081,0.032c-0.031,0.001-0.061-0.011-0.083-0.032
	c-0.021-0.023-0.032-0.052-0.032-0.083v-0.554c0-0.122-0.033-0.213-0.099-0.275c-0.064-0.063-0.151-0.095-0.259-0.095
	c-0.063,0-0.121,0.013-0.174,0.038c-0.049,0.023-0.091,0.059-0.122,0.103c-0.029,0.043-0.043,0.094-0.043,0.146v0.635
	c0.001,0.031-0.011,0.061-0.032,0.083c-0.022,0.022-0.052,0.033-0.083,0.032c-0.031,0.001-0.061-0.011-0.083-0.032
	c-0.021-0.023-0.032-0.052-0.032-0.083v-1.532c0-0.035,0.011-0.062,0.032-0.083c0.023-0.021,0.053-0.032,0.083-0.031
	c0.031-0.001,0.061,0.01,0.083,0.031c0.022,0.022,0.033,0.052,0.032,0.083v0.552c0.049-0.048,0.107-0.086,0.171-0.11
	C49.549,10.809,49.621,10.796,49.693,10.796L49.693,10.796z"/>
<path d="M50.664,10.922c-0.001-0.031,0.01-0.061,0.032-0.083c0.023-0.021,0.053-0.032,0.083-0.031
	c0.031-0.001,0.061,0.01,0.083,0.031c0.022,0.022,0.033,0.052,0.032,0.083v1.003c0.001,0.031-0.011,0.061-0.032,0.083
	c-0.022,0.021-0.052,0.033-0.083,0.031c-0.031,0.001-0.061-0.01-0.083-0.031c-0.021-0.023-0.032-0.052-0.032-0.083V10.922z
	 M50.779,10.31c0.04,0,0.075,0.015,0.103,0.045c0.058,0.055,0.06,0.147,0.005,0.205c-0.002,0.002-0.003,0.003-0.005,0.005
	c-0.027,0.028-0.065,0.043-0.103,0.043c-0.04,0-0.078-0.015-0.106-0.043c-0.028-0.028-0.043-0.066-0.043-0.106
	c0-0.041,0.014-0.075,0.043-0.104C50.701,10.326,50.739,10.31,50.779,10.31z"/>
<path d="M51.903,10.798c0.119,0,0.225,0.027,0.318,0.081c0.095,0.052,0.168,0.126,0.221,0.22c0.054,0.095,0.081,0.203,0.081,0.325
	v0.487c0,0.119-0.026,0.227-0.079,0.324s-0.127,0.174-0.223,0.23c-0.095,0.057-0.202,0.086-0.322,0.086
	c-0.108,0-0.209-0.022-0.302-0.066c-0.092-0.041-0.172-0.104-0.234-0.182c-0.015-0.018-0.024-0.04-0.025-0.063
	c0-0.032,0.016-0.059,0.047-0.081c0.05-0.036,0.12-0.024,0.155,0.027c0,0,0,0,0,0c0.04,0.053,0.092,0.093,0.153,0.12
	c0.061,0.028,0.132,0.043,0.21,0.043c0.073,0,0.14-0.018,0.2-0.054c0.062-0.037,0.112-0.091,0.144-0.155
	c0.038-0.075,0.056-0.159,0.054-0.243v-0.111c-0.047,0.083-0.108,0.147-0.185,0.194c-0.077,0.046-0.163,0.07-0.259,0.07
	c-0.105,0.001-0.209-0.026-0.3-0.079c-0.087-0.054-0.158-0.131-0.205-0.223c-0.049-0.1-0.074-0.211-0.072-0.322
	c0-0.122,0.026-0.23,0.079-0.325c0.053-0.095,0.126-0.168,0.221-0.22C51.679,10.825,51.79,10.797,51.903,10.798z M51.903,11.846
	c0.077,0,0.145-0.018,0.205-0.054c0.062-0.036,0.109-0.086,0.142-0.149c0.035-0.067,0.053-0.143,0.052-0.219
	c0-0.081-0.017-0.154-0.052-0.218c-0.032-0.063-0.081-0.116-0.142-0.151c-0.062-0.037-0.133-0.055-0.205-0.054
	c-0.077,0-0.146,0.018-0.207,0.054c-0.06,0.036-0.109,0.088-0.142,0.151c-0.035,0.067-0.053,0.143-0.052,0.219
	c0,0.081,0.017,0.154,0.052,0.218c0.035,0.063,0.082,0.113,0.142,0.149C51.758,11.828,51.827,11.846,51.903,11.846z"/>
<path d="M52.911,10.922c0-0.034,0.011-0.062,0.032-0.083c0.023-0.021,0.053-0.032,0.083-0.031c0.031-0.001,0.061,0.01,0.083,0.031
	c0.022,0.022,0.033,0.052,0.032,0.083v1.003c0.001,0.031-0.011,0.061-0.032,0.083c-0.022,0.021-0.052,0.033-0.083,0.031
	c-0.031,0.001-0.061-0.01-0.083-0.031c-0.021-0.023-0.032-0.052-0.032-0.083V10.922z M53.026,10.31c0.04,0,0.075,0.015,0.104,0.045
	c0.058,0.056,0.06,0.148,0.004,0.206c-0.001,0.001-0.003,0.003-0.004,0.004c-0.027,0.028-0.065,0.043-0.104,0.043
	c-0.04,0-0.078-0.015-0.106-0.043c-0.028-0.028-0.043-0.066-0.043-0.106c-0.001-0.039,0.015-0.076,0.043-0.104
	C52.947,10.326,52.985,10.31,53.026,10.31z"/>
<path d="M54.698,11.404c0.001,0.027-0.01,0.053-0.029,0.072c-0.02,0.018-0.047,0.028-0.074,0.027h-0.857
	c0.017,0.105,0.064,0.19,0.142,0.254c0.08,0.065,0.176,0.097,0.291,0.097c0.045,0,0.092-0.008,0.14-0.025
	c0.044-0.014,0.085-0.034,0.121-0.061c0.021-0.017,0.048-0.025,0.074-0.025c0.029,0,0.051,0.007,0.068,0.022
	c0.027,0.022,0.04,0.048,0.04,0.077c0,0.027-0.012,0.049-0.036,0.067c-0.058,0.044-0.122,0.077-0.192,0.099
	c-0.18,0.063-0.379,0.048-0.548-0.04c-0.095-0.052-0.175-0.129-0.23-0.223c-0.055-0.098-0.083-0.209-0.081-0.322
	c0-0.12,0.025-0.228,0.077-0.322c0.053-0.096,0.125-0.171,0.216-0.223c0.096-0.055,0.205-0.083,0.316-0.081
	c0.116,0,0.216,0.026,0.3,0.077c0.084,0.051,0.149,0.122,0.194,0.214C54.675,11.181,54.698,11.286,54.698,11.404z M54.136,10.992
	c-0.11,0-0.199,0.03-0.268,0.09c-0.069,0.063-0.115,0.148-0.129,0.241h0.751c-0.014-0.1-0.051-0.181-0.113-0.241
	C54.316,11.022,54.236,10.992,54.136,10.992z M53.936,10.63c-0.02,0.016-0.046,0.025-0.072,0.025
	c-0.03,0.001-0.059-0.008-0.083-0.025c-0.02-0.017-0.032-0.041-0.032-0.068c0-0.039,0.018-0.072,0.054-0.099l0.253-0.165
	c0.036-0.024,0.083-0.024,0.119,0l0.25,0.165c0.033,0.022,0.054,0.059,0.054,0.099c0,0.026-0.011,0.051-0.032,0.068
	c-0.023,0.017-0.052,0.026-0.081,0.025c-0.027,0-0.053-0.009-0.074-0.025l-0.178-0.126C54.114,10.503,53.936,10.63,53.936,10.63z"/>
<path d="M55.627,10.796c0.103,0,0.197,0.023,0.279,0.068c0.083,0.045,0.15,0.114,0.194,0.198c0.047,0.086,0.07,0.189,0.07,0.311
	v0.554c0.001,0.062-0.048,0.113-0.11,0.115c-0.002,0-0.004,0-0.005,0c-0.031,0.001-0.061-0.011-0.083-0.032
	c-0.021-0.022-0.033-0.052-0.032-0.083v-0.554c0-0.122-0.033-0.213-0.099-0.275c-0.065-0.063-0.151-0.095-0.259-0.095
	c-0.063,0-0.121,0.013-0.173,0.038c-0.049,0.023-0.091,0.059-0.122,0.103c-0.029,0.043-0.044,0.094-0.043,0.146v0.635
	c0.001,0.031-0.011,0.061-0.032,0.083c-0.022,0.022-0.052,0.033-0.083,0.032c-0.031,0.001-0.061-0.011-0.083-0.032
	c-0.021-0.023-0.032-0.052-0.032-0.083v-1.005c0-0.034,0.011-0.062,0.032-0.083c0.023-0.021,0.053-0.032,0.083-0.031
	c0.031-0.001,0.061,0.01,0.083,0.031c0.022,0.022,0.033,0.052,0.032,0.083v0.025c0.048-0.048,0.105-0.085,0.171-0.11
	C55.482,10.809,55.554,10.796,55.627,10.796L55.627,10.796z"/>
<path d="M56.595,10.922c0-0.034,0.011-0.062,0.032-0.083c0.023-0.021,0.053-0.032,0.083-0.031c0.035,0,0.062,0.01,0.084,0.031
	c0.021,0.022,0.033,0.052,0.031,0.083v1.003c0.001,0.031-0.01,0.061-0.031,0.083c-0.022,0.021-0.053,0.033-0.084,0.031
	c-0.031,0.001-0.061-0.01-0.083-0.031c-0.021-0.023-0.032-0.052-0.032-0.083V10.922z M56.71,10.31c0.041,0,0.075,0.015,0.104,0.045
	c0.058,0.055,0.06,0.147,0.005,0.205c-0.002,0.002-0.003,0.003-0.005,0.005c-0.027,0.028-0.065,0.044-0.104,0.043
	c-0.04,0-0.078-0.015-0.106-0.043c-0.028-0.028-0.043-0.066-0.043-0.106c0-0.041,0.014-0.075,0.043-0.104
	C56.632,10.326,56.67,10.31,56.71,10.31z"/>
<path d="M57.823,10.798c0.177,0,0.325,0.068,0.442,0.203c0.015,0.016,0.023,0.037,0.023,0.059c0,0.033-0.017,0.061-0.05,0.083
	c-0.015,0.011-0.033,0.016-0.052,0.016c-0.034,0-0.066-0.015-0.088-0.041c-0.071-0.077-0.171-0.119-0.275-0.117
	c-0.116,0-0.21,0.039-0.282,0.117c-0.072,0.077-0.108,0.179-0.108,0.307c0,0.081,0.017,0.154,0.05,0.218
	c0.035,0.063,0.082,0.113,0.142,0.149c0.062,0.036,0.132,0.054,0.21,0.054c0.102,0,0.185-0.026,0.248-0.079
	c0.024-0.019,0.053-0.03,0.083-0.032c0.021,0,0.04,0.007,0.059,0.021c0.029,0.024,0.043,0.051,0.043,0.081
	c0,0.023-0.01,0.045-0.027,0.061c-0.108,0.1-0.243,0.151-0.406,0.151c-0.119,0-0.226-0.027-0.32-0.081
	c-0.093-0.053-0.171-0.13-0.223-0.223c-0.053-0.098-0.08-0.208-0.079-0.32c0-0.12,0.026-0.228,0.077-0.322
	c0.053-0.096,0.125-0.171,0.219-0.223C57.604,10.825,57.713,10.797,57.823,10.798z"/>
<path d="M59.211,10.798c0.119,0,0.225,0.027,0.318,0.081c0.095,0.052,0.168,0.126,0.221,0.22c0.054,0.095,0.081,0.203,0.081,0.325
	c0,0.12-0.026,0.228-0.079,0.322c-0.051,0.093-0.128,0.171-0.221,0.223c-0.098,0.054-0.208,0.081-0.32,0.079
	c-0.12,0-0.228-0.027-0.322-0.079c-0.093-0.052-0.17-0.129-0.221-0.223c-0.053-0.099-0.081-0.21-0.079-0.322
	c0-0.122,0.026-0.23,0.079-0.325c0.051-0.093,0.128-0.17,0.221-0.22C58.987,10.825,59.098,10.797,59.211,10.798z M59.211,11.001
	c-0.077,0-0.146,0.018-0.207,0.054c-0.06,0.036-0.11,0.088-0.142,0.151c-0.035,0.067-0.053,0.143-0.052,0.219
	c0,0.081,0.017,0.154,0.052,0.218c0.035,0.063,0.082,0.113,0.142,0.149c0.061,0.036,0.131,0.054,0.207,0.054
	c0.077,0,0.145-0.018,0.205-0.054c0.061-0.035,0.11-0.087,0.142-0.149c0.035-0.064,0.052-0.137,0.052-0.219
	c0-0.081-0.017-0.154-0.052-0.218c-0.032-0.063-0.081-0.116-0.142-0.151C59.354,11.019,59.283,11,59.211,11.001z"/>
</svg>
