<svg viewBox="0 0 203 68" fill="none" xmlns="http://www.w3.org/2000/svg">
  <path d="M5.406 65.063l2.655 1.411a4.521 4.521 0 0 0 4.245 0l5.267-2.8a3.832 3.832 0 0 1 3.598 0l5.266 2.8a4.521 4.521 0 0 0 4.246 0l2.654-1.411a8.32 8.32 0 0 0 4.411-7.348V39.058L.995 20.945v36.77a8.32 8.32 0 0 0 4.411 7.348z" fill="#F2F2F2"/>
  <path d="M37.748 39.058v18.657a8.32 8.32 0 0 1-4.411 7.348l-2.654 1.41a4.522 4.522 0 0 1-4.246 0l-2.622-1.393c-.01-2.64-.017-5.49-.018-7.962a7.148 7.148 0 0 0-6.036-7.05C4.633 47.972.994 39.45.994 39.45V20.945l36.754 18.113z" fill="#E3E4E5"/>
  <path d="M49.406.996c8.132 0 14.724 8.932 14.724 19.95 0 11.017-6.592 19.948-14.724 19.948H15.718V.996h33.688z" fill="#fff"/>
  <path d="M63.696 16.126H15.718V.996h33.688c6.905 0 12.7 6.441 14.29 15.13z" fill="#F9F9F9"/>
  <path d="M15.718 40.895c-8.132 0-14.724-8.932-14.724-19.95C.994 9.929 7.586.997 15.718.997c8.132 0 14.725 8.932 14.725 19.95 0 11.017-6.593 19.95-14.725 19.95z" fill="#F3F3F3"/>
  <path fill-rule="evenodd" clip-rule="evenodd" d="M53.684 14.069a3.812 3.812 0 0 1-3.803-4.103h1.178a2.639 2.639 0 0 0 2.624 2.931 2.639 2.639 0 0 0 2.625-2.931h1.178a3.812 3.812 0 0 1-3.802 4.103z" fill="#000"/>
  <path fill-rule="evenodd" clip-rule="evenodd" d="M36.67 14.069a3.812 3.812 0 0 1-3.803-4.103h1.178a2.639 2.639 0 0 0 2.624 2.931 2.639 2.639 0 0 0 2.624-2.931h1.179a3.812 3.812 0 0 1-3.802 4.103z" fill="#000"/>
  <path d="M15.718 20.945c0-7.384-2.962-13.83-7.363-17.28C10.521 1.969 13.037.997 15.718.997c8.132 0 14.724 8.932 14.724 19.95 0 11.017-6.592 19.948-14.724 19.948-2.682 0-5.197-.972-7.363-2.67 4.401-3.449 7.363-9.895 7.363-17.279z" fill="#E9E9E9"/>
  <path d="M15.718 30.283c1.938 0 4.131-3.312 4.131-9.338s-2.162-9.338-4.13-9.338c-1.97 0-4.132 3.312-4.132 9.338s2.193 9.338 4.131 9.338z" fill="#C0AB91"/>
  <path d="M14.239 12.222c.48-.407.986-.615 1.48-.615 1.968 0 4.13 3.312 4.13 9.338s-2.193 9.338-4.13 9.338c-.49 0-.995-.21-1.477-.623.945-2.633 1.476-5.59 1.476-8.715 0-3.128-.532-6.088-1.479-8.723z" fill="#A78966"/>
  <path d="M4.507 6.247C7.481 2.218 11.462 0 15.718 0h33.688c4.256 0 8.238 2.219 11.211 6.247 2.907 3.938 4.507 9.158 4.507 14.698 0 5.54-1.6 10.76-4.507 14.699-2.973 4.028-6.955 6.246-11.211 6.246H15.718c-4.256 0-8.238-2.218-11.21-6.246a21.6 21.6 0 0 1-2.52-4.468v26.539a7.309 7.309 0 0 0 3.884 6.468l2.655 1.411a3.525 3.525 0 0 0 3.313 0l5.267-2.8a4.819 4.819 0 0 1 4.53 0l5.267 2.8a3.525 3.525 0 0 0 3.313 0l2.654-1.411a7.309 7.309 0 0 0 3.883-6.468V45.223a.995.995 0 1 1 1.989 0v12.492a9.297 9.297 0 0 1-4.94 8.228l-2.654 1.41a5.507 5.507 0 0 1-5.178 0l-5.266-2.8a2.836 2.836 0 0 0-2.666 0l-5.267 2.8a5.511 5.511 0 0 1-5.177 0l-2.655-1.41A9.298 9.298 0 0 1 0 57.715v-36.77c0-5.54 1.6-10.76 4.507-14.698zm44.899 33.651c7.57 0 13.73-8.502 13.73-18.953 0-10.45-6.16-18.953-13.73-18.953H22.443c1.65 1.04 3.168 2.469 4.486 4.255 2.907 3.938 4.507 9.158 4.507 14.698 0 5.54-1.6 10.76-4.507 14.699-1.318 1.786-2.835 3.215-4.486 4.254h26.963zm-33.688 0c7.57 0 13.73-8.502 13.73-18.953 0-10.45-6.16-18.953-13.73-18.953s-13.73 8.503-13.73 18.953 6.16 18.953 13.73 18.953z" fill="#000"/>
  <path d="M15.718 10.611c2.547 0 5.126 3.55 5.126 10.334 0 6.785-2.579 10.334-5.126 10.334-1.816 0-3.444-1.738-4.353-4.648a.994.994 0 1 1 1.898-.595c.698 2.234 1.762 3.251 2.455 3.251 1.06 0 3.137-2.519 3.137-8.342 0-2.596-.434-4.9-1.223-6.484-.681-1.37-1.435-1.857-1.914-1.857-.478 0-1.233.487-1.914 1.857-.789 1.585-1.223 3.888-1.223 6.484 0 .356.008.71.024 1.052a.995.995 0 1 1-1.986.092 24.684 24.684 0 0 1-.026-1.144c0-6.784 2.578-10.334 5.125-10.334z" fill="#000"/>
  <path d="M45.743 25.876h-1.146a.733.733 0 0 1-.745-.72c0-.399.334-.722.745-.722h2.028a.507.507 0 0 0 .513-.497.507.507 0 0 0-.513-.497h-.937v-.667a.507.507 0 0 0-.514-.497.507.507 0 0 0-.513.497v.667h-.06c-.976 0-1.772.77-1.772 1.715 0 .945.796 1.715 1.772 1.715h1.147c.41 0 .744.323.744.721a.733.733 0 0 1-.744.721h-2.063a.507.507 0 0 0-.513.497c0 .274.23.497.513.497h.976v.68c0 .273.23.497.513.497a.507.507 0 0 0 .514-.497v-.68h.085c.967-.012 1.75-.779 1.75-1.715-.008-.944-.804-1.715-1.78-1.715z" fill="#000"/>
  <path d="M78.414 21.877a1.3 1.3 0 0 1-.394.962c-.245.26-.568.39-.97.39-.385 0-.709-.13-.971-.39a1.3 1.3 0 0 1-.394-.962V4.282c0-.398.131-.719.394-.961.262-.26.586-.39.97-.39h5.248c1.295 0 2.45.286 3.464.858a5.955 5.955 0 0 1 2.388 2.39c.577 1.023.866 2.184.866 3.483 0 1.265-.29 2.391-.866 3.379a5.879 5.879 0 0 1-2.388 2.313c-1.015.554-2.17.832-3.464.832h-3.883v5.691zm3.883-8.186c1.19 0 2.17-.373 2.939-1.118.77-.762 1.155-1.733 1.155-2.91 0-1.23-.385-2.244-1.155-3.041-.77-.797-1.75-1.196-2.939-1.196h-3.883v8.265h3.883z" fill="#000"/>
  <path d="M97.766 8.909c1.381 0 2.615.311 3.7.935a6.463 6.463 0 0 1 2.57 2.547c.63 1.092.945 2.34.945 3.743 0 1.386-.306 2.625-.918 3.716a6.64 6.64 0 0 1-2.571 2.573c-1.085.607-2.327.91-3.726.91-1.4 0-2.65-.303-3.753-.91a6.64 6.64 0 0 1-2.571-2.573c-.612-1.091-.918-2.33-.918-3.716 0-1.404.306-2.651.918-3.743a6.463 6.463 0 0 1 2.571-2.547c1.103-.624 2.353-.935 3.753-.935zm0 2.339c-.892 0-1.697.208-2.414.623-.7.416-1.251.997-1.653 1.742-.403.745-.604 1.585-.604 2.52 0 .936.201 1.777.604 2.522.402.727.953 1.3 1.653 1.715.717.416 1.521.624 2.414.624.892 0 1.688-.208 2.387-.624a4.236 4.236 0 0 0 1.653-1.715c.403-.745.604-1.586.604-2.521 0-.936-.201-1.776-.604-2.521a4.196 4.196 0 0 0-1.653-1.742c-.7-.415-1.495-.623-2.387-.623z" fill="#000"/>
  <path d="M120.798 8.987c.403 0 .726.12.971.363s.368.564.368.962v11.591c0 .382-.123.702-.368.962-.245.243-.568.364-.97.364-.385 0-.709-.121-.971-.364a1.349 1.349 0 0 1-.368-.962v-.286a6 6 0 0 1-1.994 1.3 6.843 6.843 0 0 1-2.466.442c-1.207 0-2.292-.26-3.254-.78a5.537 5.537 0 0 1-2.257-2.261c-.542-1.005-.813-2.21-.813-3.613v-6.393c0-.381.122-.693.367-.936.263-.26.586-.39.971-.39s.7.13.945.39c.262.243.393.555.393.936v6.393c0 1.404.376 2.47 1.129 3.197.77.71 1.784 1.066 3.043 1.066.735 0 1.4-.148 1.995-.442.612-.295 1.084-.693 1.417-1.196.35-.502.524-1.065.524-1.689v-7.329c0-.398.123-.719.368-.962.262-.242.586-.363.97-.363z" fill="#000"/>
  <path d="M134.066 8.909c1.347 0 2.571.32 3.673.961a6.725 6.725 0 0 1 2.624 2.6c.63 1.09.945 2.312.945 3.664 0 1.351-.297 2.581-.892 3.69a6.489 6.489 0 0 1-2.414 2.573c-1.015.624-2.152.936-3.411.936a6.515 6.515 0 0 1-2.834-.624 6.419 6.419 0 0 1-2.23-1.741v7.017c0 .398-.123.719-.368.962-.245.242-.568.363-.97.363-.385 0-.709-.121-.971-.363-.245-.243-.368-.564-.368-.962V16.134c0-1.352.315-2.573.945-3.665a7.023 7.023 0 0 1 2.597-2.599c1.103-.64 2.327-.961 3.674-.961zm0 12.085c.875 0 1.662-.208 2.361-.624a4.605 4.605 0 0 0 1.68-1.741c.42-.745.63-1.577.63-2.495 0-.919-.21-1.75-.63-2.495a4.37 4.37 0 0 0-1.68-1.742c-.7-.433-1.486-.65-2.361-.65a4.53 4.53 0 0 0-2.388.65c-.7.416-1.25.997-1.653 1.742-.402.745-.603 1.576-.603 2.495 0 .918.2 1.75.603 2.495a4.67 4.67 0 0 0 1.653 1.74 4.673 4.673 0 0 0 2.388.625z" fill="#000"/>
  <path d="M151.807 8.909c1.347 0 2.563.32 3.647.961a6.775 6.775 0 0 1 2.598 2.6c.647 1.09.97 2.312.97 3.664v5.795a1.3 1.3 0 0 1-.393.962c-.245.243-.56.364-.945.364-.384 0-.708-.121-.97-.364a1.349 1.349 0 0 1-.368-.962v-.961a6.42 6.42 0 0 1-2.23 1.741 6.516 6.516 0 0 1-2.834.624c-1.26 0-2.405-.312-3.437-.936-1.015-.624-1.82-1.481-2.414-2.573-.578-1.109-.866-2.339-.866-3.69 0-1.352.315-2.573.944-3.665a6.776 6.776 0 0 1 2.598-2.599c1.12-.64 2.353-.961 3.7-.961zm0 12.085c.874 0 1.662-.208 2.361-.624a4.605 4.605 0 0 0 1.68-1.741c.402-.745.603-1.577.603-2.495 0-.919-.2-1.75-.603-2.495a4.37 4.37 0 0 0-1.68-1.742c-.7-.433-1.487-.65-2.361-.65a4.53 4.53 0 0 0-2.388.65 4.62 4.62 0 0 0-1.68 1.742c-.402.745-.603 1.576-.603 2.495 0 .918.201 1.75.604 2.495.42.727.98 1.308 1.68 1.74a4.673 4.673 0 0 0 2.387.625z" fill="#000"/>
  <path d="M170.222 8.909c1.347 0 2.571.32 3.673.961a6.726 6.726 0 0 1 2.624 2.6c.63 1.09.945 2.312.945 3.664 0 1.351-.298 2.581-.892 3.69a6.494 6.494 0 0 1-2.415 2.573c-1.014.624-2.151.936-3.41.936a6.515 6.515 0 0 1-2.834-.624 6.419 6.419 0 0 1-2.23-1.741v7.017c0 .398-.123.719-.368.962-.245.242-.569.363-.97.363-.386 0-.71-.121-.972-.363-.245-.243-.367-.564-.367-.962V16.134c0-1.352.315-2.573.945-3.665a7.022 7.022 0 0 1 2.597-2.599c1.102-.64 2.327-.961 3.674-.961zm0 12.085c.874 0 1.662-.208 2.361-.624a4.606 4.606 0 0 0 1.68-1.741c.42-.745.63-1.577.63-2.495 0-.919-.21-1.75-.63-2.495a4.371 4.371 0 0 0-1.68-1.742c-.7-.433-1.487-.65-2.361-.65a4.53 4.53 0 0 0-2.388.65c-.7.416-1.25.997-1.653 1.742-.402.745-.604 1.576-.604 2.495 0 .918.202 1.75.604 2.495a4.67 4.67 0 0 0 1.653 1.74 4.673 4.673 0 0 0 2.388.625z" fill="#000"/>
  <path d="M194.339 15.9c0 .329-.114.606-.341.831-.228.208-.516.312-.866.312h-9.971c.192 1.213.743 2.192 1.653 2.937.927.745 2.055 1.118 3.385 1.118.524 0 1.067-.096 1.627-.286.577-.19 1.049-.425 1.416-.702a1.37 1.37 0 0 1 .866-.286c.333 0 .595.087.788.26.314.26.472.555.472.884 0 .312-.14.572-.42.78-.595.467-1.338.848-2.23 1.143-.875.295-1.715.442-2.519.442-1.435 0-2.72-.303-3.857-.91a6.916 6.916 0 0 1-2.677-2.573c-.63-1.091-.944-2.33-.944-3.716 0-1.386.297-2.625.892-3.717a6.514 6.514 0 0 1 2.519-2.573c1.084-.624 2.309-.935 3.673-.935 1.347 0 2.51.294 3.49.883a5.839 5.839 0 0 1 2.256 2.47c.525 1.056.788 2.269.788 3.638zm-6.534-4.756c-1.277 0-2.318.346-3.122 1.04-.788.692-1.286 1.62-1.496 2.78h8.738c-.158-1.16-.595-2.088-1.312-2.78-.717-.694-1.653-1.04-2.808-1.04z" fill="#000"/>
  <path d="M197.227 4.23c0-.38.123-.693.368-.935.245-.243.56-.364.944-.364.385 0 .7.121.945.364.245.242.367.554.367.935v14.19c0 .642.123 1.17.368 1.586.245.416.559.624.944.624h.656c.35 0 .63.121.84.364.227.242.341.554.341.935 0 .382-.166.693-.499.936-.332.243-.76.364-1.285.364h-.053a3.67 3.67 0 0 1-2.046-.598c-.595-.416-1.059-.988-1.391-1.715-.332-.745-.499-1.577-.499-2.495V4.23z" fill="#000"/>
  <path d="M78.63 31.49c.386 0 .719.05.998.152.285.101.572.269.862.503a.352.352 0 0 1 .122.144.42.42 0 0 1 .03.168.318.318 0 0 1-.114.252.358.358 0 0 1-.251.099.414.414 0 0 1-.267-.1 2.14 2.14 0 0 0-.61-.38c-.199-.082-.456-.122-.77-.122-.398 0-.764.104-1.1.312-.33.208-.594.493-.792.854-.194.355-.29.744-.29 1.166 0 .426.096.818.29 1.173.198.356.462.638.793.846.335.208.701.313 1.098.313.488 0 .956-.168 1.403-.503a.439.439 0 0 1 .252-.092c.097 0 .176.036.237.107a.36.36 0 0 1 .099.267c0 .106-.04.2-.122.281a2.9 2.9 0 0 1-1.869.663 2.87 2.87 0 0 1-2.555-1.508 3.135 3.135 0 0 1-.389-1.547c0-.56.13-1.07.389-1.532.26-.468.613-.836 1.06-1.105a2.825 2.825 0 0 1 1.495-.412z" fill="#000"/>
  <path d="M83.475 33.318c.391 0 .745.094 1.06.282.32.183.572.437.755.762.188.32.282.679.282 1.075v1.7a.383.383 0 0 1-.114.281.372.372 0 0 1-.275.107.398.398 0 0 1-.282-.107.398.398 0 0 1-.107-.282v-.282a1.868 1.868 0 0 1-1.472.694c-.366 0-.699-.092-.999-.275a1.97 1.97 0 0 1-.702-.754 2.324 2.324 0 0 1-.251-1.082c0-.396.091-.755.274-1.075.183-.325.435-.579.755-.762a2.112 2.112 0 0 1 1.076-.282zm0 3.544a1.31 1.31 0 0 0 1.174-.694c.117-.218.176-.462.176-.731 0-.27-.059-.513-.176-.732a1.277 1.277 0 0 0-.488-.51 1.27 1.27 0 0 0-.686-.19c-.255 0-.486.063-.694.19a1.349 1.349 0 0 0-.489.51 1.525 1.525 0 0 0-.175.732c0 .27.058.513.175.731.122.214.285.384.489.511.208.122.44.183.694.183z" fill="#000"/>
  <path d="M86.654 31.947a.37.37 0 0 1 .107-.275.372.372 0 0 1 .274-.106c.112 0 .204.035.275.106a.371.371 0 0 1 .106.275v4.16c0 .188.036.343.107.465.071.122.163.183.275.183h.19c.102 0 .183.036.244.107.067.071.1.162.1.274a.327.327 0 0 1-.145.275.615.615 0 0 1-.374.106h-.015a1.06 1.06 0 0 1-.595-.175 1.21 1.21 0 0 1-.404-.503 1.79 1.79 0 0 1-.145-.732v-4.16z" fill="#000"/>
  <path d="M90.792 33.318c.6 0 1.098.229 1.495.686.05.056.076.122.076.198 0 .112-.056.206-.168.282a.299.299 0 0 1-.175.054.383.383 0 0 1-.298-.138 1.24 1.24 0 0 0-.93-.396c-.392 0-.71.132-.954.396-.244.26-.366.605-.366 1.037 0 .274.056.52.168.739.117.213.277.381.48.503.209.122.445.183.71.183.346 0 .625-.089.839-.267a.478.478 0 0 1 .282-.107c.071 0 .137.023.198.07.097.08.145.172.145.273 0 .077-.03.145-.091.206-.366.34-.824.51-1.373.51-.402 0-.763-.09-1.083-.274a1.993 1.993 0 0 1-.755-.754 2.216 2.216 0 0 1-.267-1.082c0-.407.086-.77.259-1.09.178-.325.425-.577.74-.754a2.088 2.088 0 0 1 1.068-.275z" fill="#000"/>
  <path d="M97.035 33.341c.117 0 .211.036.282.107a.38.38 0 0 1 .107.282v3.399a.397.397 0 0 1-.107.282.382.382 0 0 1-.282.106.398.398 0 0 1-.282-.106.397.397 0 0 1-.107-.282v-.084c-.162.162-.356.29-.58.38-.223.087-.462.13-.716.13a1.95 1.95 0 0 1-.946-.228 1.616 1.616 0 0 1-.656-.663c-.158-.295-.237-.648-.237-1.06V33.73c0-.112.036-.203.107-.275a.384.384 0 0 1 .282-.114.36.36 0 0 1 .275.114.358.358 0 0 1 .114.275v1.874c0 .412.11.724.328.938.224.208.519.312.885.312.214 0 .407-.043.58-.13a.995.995 0 0 0 .412-.35.852.852 0 0 0 .152-.495v-2.15a.38.38 0 0 1 .107-.281.398.398 0 0 1 .282-.107z" fill="#000"/>
  <path d="M98.718 31.947c0-.112.036-.204.107-.275a.372.372 0 0 1 .274-.106c.112 0 .204.035.275.106a.371.371 0 0 1 .107.275v4.16c0 .188.035.343.106.465.072.122.163.183.275.183h.19c.102 0 .184.036.245.107a.386.386 0 0 1 .099.274.327.327 0 0 1-.145.275.614.614 0 0 1-.374.106h-.015a1.06 1.06 0 0 1-.595-.175 1.21 1.21 0 0 1-.404-.503 1.788 1.788 0 0 1-.145-.732v-4.16z" fill="#000"/>
  <path d="M102.894 33.318c.392 0 .745.094 1.06.282.32.183.572.437.755.762.189.32.283.679.283 1.075v1.7a.383.383 0 0 1-.115.281.372.372 0 0 1-.274.107.398.398 0 0 1-.283-.107.397.397 0 0 1-.106-.282v-.282a1.867 1.867 0 0 1-1.472.694 1.882 1.882 0 0 1-1.701-1.029 2.324 2.324 0 0 1-.252-1.082c0-.396.092-.755.275-1.075.183-.325.434-.579.755-.762a2.112 2.112 0 0 1 1.075-.282zm0 3.544a1.31 1.31 0 0 0 1.175-.694c.117-.218.175-.462.175-.731 0-.27-.058-.513-.175-.732a1.276 1.276 0 0 0-.488-.51 1.27 1.27 0 0 0-.687-.19 1.31 1.31 0 0 0-.694.19 1.35 1.35 0 0 0-.488.51 1.526 1.526 0 0 0-.175.732c0 .27.058.513.175.731.122.214.285.384.488.511.209.122.44.183.694.183z" fill="#000"/>
  <path d="M109.826 31.566c.117 0 .21.035.282.106a.381.381 0 0 1 .107.282v3.475a2.113 2.113 0 0 1-1.038 1.844 2.073 2.073 0 0 1-1.06.275c-.391 0-.75-.092-1.075-.275a2.05 2.05 0 0 1-.755-.762 2.168 2.168 0 0 1-.275-1.082c0-.396.084-.754.252-1.074.173-.325.407-.58.702-.762.3-.183.633-.275.999-.275a1.88 1.88 0 0 1 1.472.694v-2.058a.38.38 0 0 1 .107-.282.398.398 0 0 1 .282-.106zm-1.709 5.296c.255 0 .483-.061.687-.183.208-.127.37-.3.488-.518.117-.219.175-.463.175-.732 0-.27-.058-.51-.175-.724a1.276 1.276 0 0 0-.488-.51 1.27 1.27 0 0 0-.687-.19 1.31 1.31 0 0 0-.694.19 1.348 1.348 0 0 0-.488.51 1.48 1.48 0 0 0-.175.724c0 .27.058.513.175.732.122.218.285.391.488.518.209.122.44.183.694.183z" fill="#000"/>
  <path d="M113.556 33.318c.402 0 .76.092 1.076.275.32.177.57.426.747.746.183.32.275.686.275 1.098 0 .406-.09.77-.267 1.09-.178.32-.427.571-.748.754a2.166 2.166 0 0 1-1.083.267c-.406 0-.77-.09-1.09-.267a1.94 1.94 0 0 1-.748-.754 2.205 2.205 0 0 1-.267-1.09c0-.412.09-.777.267-1.098.178-.32.427-.569.748-.746a2.16 2.16 0 0 1 1.09-.275zm0 .686a1.36 1.36 0 0 0-.701.183 1.293 1.293 0 0 0-.48.51 1.54 1.54 0 0 0-.176.74c0 .274.058.52.175.739.117.213.277.381.48.503.21.122.443.183.702.183.26 0 .491-.061.695-.183.208-.122.368-.29.48-.503a1.54 1.54 0 0 0 .175-.74c0-.274-.058-.52-.175-.738a1.227 1.227 0 0 0-.48-.511 1.324 1.324 0 0 0-.695-.183z" fill="#000"/>
  <path d="M118.932 33.303c.27 0 .48.04.633.122.153.081.229.183.229.305a.267.267 0 0 1-.008.076c-.045.163-.147.244-.305.244a.643.643 0 0 1-.114-.015 3.008 3.008 0 0 0-.496-.054c-.366 0-.661.084-.885.252a.804.804 0 0 0-.335.678v2.225c0 .122-.033.216-.1.282-.06.066-.155.1-.282.1a.4.4 0 0 1-.282-.092c-.066-.066-.099-.163-.099-.29V33.73c0-.122.033-.216.1-.282a.38.38 0 0 1 .281-.1c.255 0 .382.128.382.382v.145c.152-.178.34-.318.564-.42.224-.101.463-.152.717-.152z" fill="#000"/>
  <path d="M122.26 33.318c.391 0 .745.094 1.06.282.32.183.572.437.755.762.188.32.282.679.282 1.075v1.7a.383.383 0 0 1-.114.281.372.372 0 0 1-.275.107.398.398 0 0 1-.282-.107.397.397 0 0 1-.107-.282v-.282a1.869 1.869 0 0 1-1.472.694 1.882 1.882 0 0 1-1.7-1.029 2.324 2.324 0 0 1-.252-1.082c0-.396.091-.755.274-1.075.183-.325.435-.579.755-.762a2.112 2.112 0 0 1 1.076-.282zm0 3.544a1.31 1.31 0 0 0 1.174-.694c.117-.218.176-.462.176-.731 0-.27-.059-.513-.176-.732a1.278 1.278 0 0 0-.488-.51 1.27 1.27 0 0 0-.686-.19c-.254 0-.486.063-.694.19a1.348 1.348 0 0 0-.488.51 1.525 1.525 0 0 0-.176.732c0 .27.059.513.176.731.122.214.284.384.488.511.208.122.44.183.694.183z" fill="#000"/>
  <path d="M131.502 31.566a.38.38 0 0 1 .282.106.381.381 0 0 1 .107.282v3.475c0 .396-.094.757-.282 1.082a2.05 2.05 0 0 1-.755.762 2.074 2.074 0 0 1-1.06.275 2.16 2.16 0 0 1-1.076-.275 2.049 2.049 0 0 1-.755-.762 2.167 2.167 0 0 1-.274-1.082c0-.396.083-.754.251-1.074.173-.325.407-.58.702-.762.3-.183.633-.275 1-.275a1.88 1.88 0 0 1 1.471.694v-2.058c0-.117.036-.21.107-.282a.398.398 0 0 1 .282-.106zm-1.708 5.296c.254 0 .483-.061.686-.183.209-.127.371-.3.488-.518.117-.219.176-.463.176-.732 0-.27-.059-.51-.176-.724a1.277 1.277 0 0 0-.488-.51 1.27 1.27 0 0 0-.686-.19c-.255 0-.486.063-.694.19a1.349 1.349 0 0 0-.489.51 1.482 1.482 0 0 0-.175.724c0 .27.059.513.175.732.122.218.285.391.489.518.208.122.44.183.694.183z" fill="#000"/>
  <path d="M137.086 35.368a.331.331 0 0 1-.099.244.357.357 0 0 1-.252.092h-2.898c.056.355.216.642.48.86.27.22.598.328.984.328.153 0 .31-.028.473-.083.168-.056.305-.125.412-.206a.396.396 0 0 1 .252-.084c.096 0 .173.025.229.076.091.076.137.163.137.26 0 .09-.04.167-.122.228a2.103 2.103 0 0 1-.648.335 2.328 2.328 0 0 1-1.853-.137 2.019 2.019 0 0 1-.779-.754 2.156 2.156 0 0 1-.274-1.09c0-.407.086-.77.259-1.09.178-.325.422-.577.732-.754a2.088 2.088 0 0 1 1.068-.275c.391 0 .73.087 1.014.26.285.172.504.413.656.723.153.31.23.666.23 1.067zm-1.899-1.394c-.371 0-.674.101-.908.304a1.377 1.377 0 0 0-.434.816h2.54c-.046-.34-.173-.612-.382-.816-.208-.203-.48-.304-.816-.304z" fill="#000"/>
  <path d="M142.563 33.318c.392 0 .747.094 1.068.282.325.183.58.437.762.762.184.32.275.679.275 1.075 0 .396-.086.757-.26 1.082a1.896 1.896 0 0 1-1.692 1.029 1.88 1.88 0 0 1-1.473-.694v2.058c0 .117-.035.21-.106.282a.382.382 0 0 1-.283.107.398.398 0 0 1-.282-.107.38.38 0 0 1-.106-.282v-3.475c0-.396.091-.755.274-1.075a2.07 2.07 0 0 1 1.823-1.044zm0 3.544a1.31 1.31 0 0 0 1.175-.694c.122-.218.183-.462.183-.731 0-.27-.061-.513-.183-.732a1.276 1.276 0 0 0-.489-.51 1.27 1.27 0 0 0-.686-.19 1.308 1.308 0 0 0-1.175.7 1.526 1.526 0 0 0-.175.732c0 .27.058.513.175.731.117.214.278.384.48.511.21.122.44.183.695.183z" fill="#000"/>
  <path d="M147.796 33.318c.392 0 .745.094 1.06.282.32.183.572.437.755.762.189.32.283.679.283 1.075v1.7a.383.383 0 0 1-.115.281.372.372 0 0 1-.274.107.398.398 0 0 1-.283-.107.397.397 0 0 1-.106-.282v-.282a1.869 1.869 0 0 1-1.472.694 1.882 1.882 0 0 1-1.701-1.029 2.324 2.324 0 0 1-.252-1.082c0-.396.091-.755.275-1.075.183-.325.434-.579.755-.762a2.112 2.112 0 0 1 1.075-.282zm0 3.544a1.31 1.31 0 0 0 1.175-.694c.117-.218.175-.462.175-.731 0-.27-.058-.513-.175-.732a1.277 1.277 0 0 0-.488-.51 1.27 1.27 0 0 0-.687-.19c-.254 0-.486.063-.694.19a1.349 1.349 0 0 0-.488.51 1.526 1.526 0 0 0-.176.732c0 .27.059.513.176.731.122.214.285.384.488.511.208.122.44.183.694.183z" fill="#000"/>
  <path d="M153.225 33.318c.392 0 .748.094 1.068.282.325.183.58.437.763.762.183.32.274.679.274 1.075 0 .396-.086.757-.259 1.082a1.896 1.896 0 0 1-1.693 1.029 1.88 1.88 0 0 1-1.472-.694v2.058c0 .117-.036.21-.107.282a.382.382 0 0 1-.282.107.398.398 0 0 1-.282-.107.381.381 0 0 1-.107-.282v-3.475c0-.396.091-.755.274-1.075a2.07 2.07 0 0 1 1.823-1.044zm0 3.544a1.31 1.31 0 0 0 1.175-.694c.122-.218.183-.462.183-.731 0-.27-.061-.513-.183-.732a1.277 1.277 0 0 0-.488-.51 1.27 1.27 0 0 0-.687-.19 1.308 1.308 0 0 0-1.174.7 1.525 1.525 0 0 0-.176.732c0 .27.059.513.176.731.117.214.277.384.48.511.209.122.44.183.694.183z" fill="#000"/>
  <path d="M160.312 35.368a.331.331 0 0 1-.1.244.357.357 0 0 1-.251.092h-2.898c.055.355.216.642.48.86.27.22.598.328.984.328.153 0 .31-.028.473-.083.168-.056.305-.125.412-.206a.395.395 0 0 1 .251-.084.33.33 0 0 1 .23.076c.09.076.137.163.137.26 0 .09-.041.167-.123.228a2.103 2.103 0 0 1-.648.335 2.329 2.329 0 0 1-1.853-.137 2.019 2.019 0 0 1-.778-.754 2.156 2.156 0 0 1-.275-1.09c0-.407.087-.77.26-1.09.178-.325.422-.577.732-.754a2.088 2.088 0 0 1 1.068-.275c.391 0 .73.087 1.014.26.285.172.503.413.656.723.152.31.229.666.229 1.067zm-1.9-1.394c-.37 0-.673.101-.907.304a1.377 1.377 0 0 0-.435.816h2.54c-.046-.34-.173-.612-.381-.816-.209-.203-.48-.304-.816-.304z" fill="#000"/>
  <path d="M161.228 31.947c0-.112.035-.204.106-.275a.372.372 0 0 1 .275-.106c.112 0 .203.035.275.106a.371.371 0 0 1 .106.275v4.16c0 .188.036.343.107.465.071.122.163.183.275.183h.19c.102 0 .183.036.245.107a.386.386 0 0 1 .099.274.327.327 0 0 1-.145.275.614.614 0 0 1-.374.106h-.015a1.06 1.06 0 0 1-.595-.175 1.21 1.21 0 0 1-.404-.503 1.788 1.788 0 0 1-.145-.732v-4.16z" fill="#000"/>
  <path d="M168.129 33.31c.35 0 .666.077.945.23.28.152.499.375.656.67.158.29.237.64.237 1.052v1.874a.383.383 0 0 1-.115.282.372.372 0 0 1-.274.107.398.398 0 0 1-.282-.107.397.397 0 0 1-.107-.282v-1.874c0-.412-.112-.722-.336-.93-.218-.214-.51-.32-.877-.32-.213 0-.41.043-.587.13a1.07 1.07 0 0 0-.412.35.884.884 0 0 0-.145.495v2.15a.397.397 0 0 1-.107.281.382.382 0 0 1-.282.107.398.398 0 0 1-.282-.107.397.397 0 0 1-.107-.282v-5.182c0-.117.036-.21.107-.282a.398.398 0 0 1 .282-.106.38.38 0 0 1 .282.106.381.381 0 0 1 .107.282v1.867a1.65 1.65 0 0 1 .58-.373 1.86 1.86 0 0 1 .717-.137z" fill="#000"/>
  <path d="M171.413 33.737a.38.38 0 0 1 .107-.282.398.398 0 0 1 .282-.106.38.38 0 0 1 .282.106.38.38 0 0 1 .107.282v3.392a.397.397 0 0 1-.107.282.382.382 0 0 1-.282.106.398.398 0 0 1-.282-.106.397.397 0 0 1-.107-.282v-3.392zm.389-2.072c.137 0 .254.05.35.152a.49.49 0 0 1 0 .709.478.478 0 0 1-.35.145.504.504 0 0 1-.358-.145.503.503 0 0 1-.145-.358c0-.138.048-.254.145-.351a.49.49 0 0 1 .358-.152z" fill="#000"/>
  <path d="M175.606 33.318c.402 0 .76.092 1.076.275.32.177.569.426.747.746.183.32.275.686.275 1.098v1.646c0 .401-.089.767-.267 1.097-.178.33-.43.59-.755.778-.321.193-.684.29-1.091.29-.366 0-.707-.074-1.022-.222a2.1 2.1 0 0 1-.793-.617.345.345 0 0 1-.084-.213c0-.107.053-.199.16-.275a.377.377 0 0 1 .526.091c.137.178.31.313.519.405.208.096.445.144.71.144.248 0 .475-.06.678-.183a1.26 1.26 0 0 0 .488-.525 1.73 1.73 0 0 0 .183-.823v-.374c-.158.28-.366.498-.625.656-.26.157-.552.236-.877.236a1.96 1.96 0 0 1-1.015-.267 1.914 1.914 0 0 1-.694-.754 2.37 2.37 0 0 1-.244-1.09c0-.412.089-.777.267-1.098.178-.32.427-.569.747-.746a2.16 2.16 0 0 1 1.091-.275zm0 3.544c.259 0 .491-.061.694-.183.209-.122.369-.29.481-.503a1.54 1.54 0 0 0 .175-.74c0-.274-.058-.52-.175-.738a1.225 1.225 0 0 0-.481-.511 1.323 1.323 0 0 0-.694-.183c-.26 0-.493.061-.702.183a1.293 1.293 0 0 0-.48.51 1.54 1.54 0 0 0-.176.74c0 .274.059.52.176.739.117.213.277.381.48.503.209.122.443.183.702.183z" fill="#000"/>
  <path d="M179.014 33.737c0-.116.036-.21.107-.282a.397.397 0 0 1 .282-.106.38.38 0 0 1 .282.106.382.382 0 0 1 .107.282v3.392a.398.398 0 0 1-.107.282.38.38 0 0 1-.282.106.397.397 0 0 1-.282-.106.398.398 0 0 1-.107-.282v-3.392zm.389-2.072c.137 0 .254.05.351.152a.492.492 0 0 1 0 .709.48.48 0 0 1-.351.145.506.506 0 0 1-.359-.145.505.505 0 0 1-.144-.358.48.48 0 0 1 .144-.351.493.493 0 0 1 .359-.152z" fill="#000"/>
  <path d="M185.06 35.368a.332.332 0 0 1-.099.244.356.356 0 0 1-.251.092h-2.899c.056.355.216.642.481.86.269.22.597.328.984.328.152 0 .31-.028.473-.083a1.41 1.41 0 0 0 .411-.206.4.4 0 0 1 .252-.084c.097 0 .173.025.229.076.091.076.137.163.137.26 0 .09-.04.167-.122.228a2.106 2.106 0 0 1-.648.335 2.333 2.333 0 0 1-1.854-.137 2.018 2.018 0 0 1-.777-.754 2.146 2.146 0 0 1-.275-1.09c0-.407.086-.77.259-1.09.178-.325.422-.577.732-.754a2.093 2.093 0 0 1 1.068-.275c.392 0 .73.087 1.015.26.284.172.503.413.656.723.152.31.228.666.228 1.067zm-1.899-1.394c-.371 0-.673.101-.907.304a1.376 1.376 0 0 0-.435.816h2.54c-.046-.34-.173-.612-.382-.816-.208-.203-.48-.304-.816-.304zm-.679-1.227a.383.383 0 0 1-.244.084.465.465 0 0 1-.282-.084.29.29 0 0 1-.107-.229c0-.132.061-.244.183-.335l.855-.557a.364.364 0 0 1 .404 0l.847.557a.406.406 0 0 1 .183.335.29.29 0 0 1-.107.229.432.432 0 0 1-.275.084.415.415 0 0 1-.251-.084l-.603-.427-.603.427z" fill="#000"/>
  <path d="M188.204 33.31c.35 0 .666.077.945.23a1.6 1.6 0 0 1 .656.67c.158.29.237.64.237 1.052v1.874a.38.38 0 0 1-.389.389.397.397 0 0 1-.282-.107.394.394 0 0 1-.107-.282v-1.874c0-.412-.112-.722-.336-.93-.219-.214-.511-.32-.877-.32-.214 0-.409.043-.587.13a1.07 1.07 0 0 0-.412.35.88.88 0 0 0-.145.495v2.15a.398.398 0 0 1-.107.281.38.38 0 0 1-.282.107.397.397 0 0 1-.282-.107.398.398 0 0 1-.107-.282v-3.399c0-.116.036-.21.107-.282a.397.397 0 0 1 .282-.106.38.38 0 0 1 .282.106.382.382 0 0 1 .107.282v.084c.163-.162.356-.287.58-.373a1.86 1.86 0 0 1 .717-.137z" fill="#000"/>
  <path d="M191.48 33.737c0-.116.036-.21.107-.282a.4.4 0 0 1 .282-.106c.117 0 .211.035.283.106a.381.381 0 0 1 .106.282v3.392a.398.398 0 0 1-.106.282.385.385 0 0 1-.283.106.4.4 0 0 1-.282-.106.398.398 0 0 1-.107-.282v-3.392zm.389-2.072c.138 0 .255.05.351.152a.49.49 0 0 1 0 .709.476.476 0 0 1-.351.145.504.504 0 0 1-.358-.145.501.501 0 0 1-.145-.358c0-.138.048-.254.145-.351a.49.49 0 0 1 .358-.152z" fill="#000"/>
  <path d="M195.635 33.318c.6 0 1.099.229 1.495.686a.285.285 0 0 1 .077.198c0 .112-.056.206-.168.282a.299.299 0 0 1-.176.054.382.382 0 0 1-.297-.138 1.235 1.235 0 0 0-.931-.396c-.391 0-.709.132-.953.396-.244.26-.366.605-.366 1.037 0 .274.056.52.168.739.117.213.277.381.48.503.209.122.445.183.71.183.345 0 .625-.089.839-.267a.475.475 0 0 1 .282-.107c.071 0 .137.023.198.07.097.08.145.172.145.273a.285.285 0 0 1-.092.206c-.366.34-.823.51-1.372.51-.402 0-.763-.09-1.083-.274a1.99 1.99 0 0 1-.756-.754 2.216 2.216 0 0 1-.267-1.082c0-.407.087-.77.26-1.09.178-.325.424-.577.74-.754a2.087 2.087 0 0 1 1.067-.275z" fill="#000"/>
  <path d="M200.331 33.318c.401 0 .76.092 1.075.275.32.177.57.426.748.746.183.32.274.686.274 1.098 0 .406-.089.77-.267 1.09a1.94 1.94 0 0 1-.747.754 2.17 2.17 0 0 1-1.083.267c-.407 0-.771-.09-1.091-.267a1.943 1.943 0 0 1-.748-.754 2.214 2.214 0 0 1-.266-1.09c0-.412.089-.777.266-1.098a1.89 1.89 0 0 1 .748-.746 2.16 2.16 0 0 1 1.091-.275zm0 .686c-.26 0-.494.061-.702.183a1.298 1.298 0 0 0-.481.51 1.54 1.54 0 0 0-.175.74c0 .274.058.52.175.739.117.213.278.381.481.503.208.122.442.183.702.183.259 0 .49-.061.694-.183a1.24 1.24 0 0 0 .48-.503c.117-.218.176-.465.176-.74 0-.274-.059-.52-.176-.738a1.229 1.229 0 0 0-.48-.511 1.326 1.326 0 0 0-.694-.183z" fill="#000"/>
</svg>
